<svg xmlns="http://www.w3.org/2000/svg" xmlns:xlink="http://www.w3.org/1999/xlink" width="946.935" height="930.863" viewBox="0 0 946.935 930.863"><defs><filter id="a" x="138.455" y="120.806" width="561.706" height="561.706" filterUnits="userSpaceOnUse"><feOffset dy="3" input="SourceAlpha"/><feGaussianBlur stdDeviation="17.5" result="b"/><feFlood flood-opacity="0.588"/><feComposite operator="in" in2="b"/><feComposite in="SourceGraphic"/></filter><filter id="c" x="279.76" y="260.754" width="535.319" height="535.319" filterUnits="userSpaceOnUse"><feOffset dy="3" input="SourceAlpha"/><feGaussianBlur stdDeviation="17.5" result="d"/><feFlood flood-opacity="0.588"/><feComposite operator="in" in2="d"/><feComposite in="SourceGraphic"/></filter></defs><g transform="translate(-473.547 -62.303)"><g transform="translate(764.08 790.552) rotate(-45)" fill="#0867c5" stroke="#707070" stroke-width="1"><rect width="641.409" height="266.686" stroke="none"/><rect x="0.5" y="0.5" width="640.409" height="265.686" fill="none"/></g><g transform="translate(488.635 530.679) rotate(-45)" fill="#0867c5" stroke="#707070" stroke-width="1"><rect width="641.409" height="266.686" stroke="none"/><rect x="0.5" y="0.5" width="640.409" height="265.686" fill="none"/></g><g transform="matrix(1, 0, 0, 1, 473.55, 62.3)" filter="url(#a)"><g transform="translate(472.66 179.85) rotate(45)" fill="#676767" stroke="#707070" stroke-width="1"><path d="M120.209,0h0A120.209,120.209,0,0,1,240.419,120.209V376.843a8.586,8.586,0,0,1-8.586,8.586H8.586A8.586,8.586,0,0,1,0,376.843V120.209A120.209,120.209,0,0,1,120.209,0Z" stroke="none"/><path d="M120.209.5h0A119.709,119.709,0,0,1,239.919,120.209V376.777a8.152,8.152,0,0,1-8.152,8.152H8.652A8.152,8.152,0,0,1,.5,376.777V120.209A119.709,119.709,0,0,1,120.209.5Z" fill="none"/></g></g><g transform="matrix(1, 0, 0, 1, 473.55, 62.3)" filter="url(#c)"><g transform="translate(614.45 315.46) rotate(45)" fill="#fff" stroke="#707070" stroke-width="1"><path d="M98.686,0h0a98.686,98.686,0,0,1,98.686,98.686V385.268a7.049,7.049,0,0,1-7.049,7.049H7.049A7.049,7.049,0,0,1,0,385.268V98.686A98.686,98.686,0,0,1,98.686,0Z" stroke="none"/><path d="M98.686.5h0a98.186,98.186,0,0,1,98.186,98.186V385.13a6.686,6.686,0,0,1-6.686,6.686h-183A6.686,6.686,0,0,1,.5,385.13V98.686A98.186,98.186,0,0,1,98.686.5Z" fill="none"/></g></g></g></svg>