<?xml version="1.0" encoding="UTF-8" standalone="no"?>
<svg
   xmlns:dc="http://purl.org/dc/elements/1.1/"
   xmlns:cc="http://creativecommons.org/ns#"
   xmlns:rdf="http://www.w3.org/1999/02/22-rdf-syntax-ns#"
   xmlns:svg="http://www.w3.org/2000/svg"
   xmlns="http://www.w3.org/2000/svg"
   xmlns:sodipodi="http://sodipodi.sourceforge.net/DTD/sodipodi-0.dtd"
   xmlns:inkscape="http://www.inkscape.org/namespaces/inkscape"
   inkscape:version="1.0 (4035a4fb49, 2020-05-01)"
   sodipodi:docname="bed_space.svg"
   fill="#288f38"
   xml:space="preserve"
   style="enable-background:new 0 0 512 512;"
   viewBox="0 0 512 512"
   y="0px"
   x="0px"
   id="Capa_1"
   version="1.1"><metadata
   id="metadata55"><rdf:RDF><cc:Work
       rdf:about=""><dc:format>image/svg+xml</dc:format><dc:type
         rdf:resource="http://purl.org/dc/dcmitype/StillImage" /><dc:title></dc:title></cc:Work></rdf:RDF></metadata><defs
   id="defs53" /><sodipodi:namedview
   inkscape:current-layer="layer1"
   inkscape:window-maximized="1"
   inkscape:window-y="-9"
   inkscape:window-x="-9"
   inkscape:cy="236.88786"
   inkscape:cx="197.11505"
   inkscape:zoom="1.2153398"
   showgrid="false"
   id="namedview51"
   inkscape:window-height="1051"
   inkscape:window-width="1920"
   inkscape:pageshadow="2"
   inkscape:pageopacity="0"
   guidetolerance="10"
   gridtolerance="10"
   objecttolerance="10"
   borderopacity="1"
   bordercolor="#666666"
   pagecolor="#ffffff" />
	<g
   style="display:inline"
   inkscape:label="Layer 1"
   id="layer1"
   inkscape:groupmode="layer"><ellipse
     transform="scale(1,-1)"
     ry="257.54114"
     rx="255.89552"
     cy="-255.89552"
     cx="255.89552"
     id="path913"
     style="opacity:0.993;fill:#00ff00;fill-opacity:1;stroke:none" /></g><g
   style="fill:#333333"
   transform="matrix(0.6753737,0,0,0.69601552,86.395592,69.18047)"
   id="g6">
		<g
   style="fill:#333333"
   id="g4">
			<polygon
   style="fill:#333333"
   id="polygon2"
   points="452,376 452,436 512,436 512,376 512,286 60,286 60,76 0,76 0,436 60,436 60,376 " />
		</g>
	</g>
	<g
   style="fill:#333333"
   transform="matrix(0.6753737,0,0,0.69601552,86.395592,69.18047)"
   id="g12">
		<g
   style="fill:#333333"
   id="g10">
			<path
   style="fill:#333333"
   id="path8"
   d="m 135,166 c -24.853,0 -45,20.147 -45,45 v 45 h 90 v -45 c 0,-24.853 -20.147,-45 -45,-45 z" />
		</g>
	</g>
	<g
   style="fill:#333333"
   transform="matrix(0.6753737,0,0,0.69601552,86.395592,69.18047)"
   id="g18">
		<g
   style="fill:#333333"
   id="g16">
			<path
   style="fill:#333333"
   id="path14"
   d="M 467,166 H 255 c -24.853,0 -45,20.147 -45,45 v 45 h 302 v -45 c 0,-24.853 -20.147,-45 -45,-45 z" />
		</g>
	</g>
	<g
   id="g20">
	</g>
	<g
   id="g22">
	</g>
	<g
   id="g24">
	</g>
	<g
   id="g26">
	</g>
	<g
   id="g28">
	</g>
	<g
   id="g30">
	</g>
	<g
   id="g32">
	</g>
	<g
   id="g34">
	</g>
	<g
   id="g36">
	</g>
	<g
   id="g38">
	</g>
	<g
   id="g40">
	</g>
	<g
   id="g42">
	</g>
	<g
   id="g44">
	</g>
	<g
   id="g46">
	</g>
	<g
   id="g48">
	</g>
<g
   inkscape:label="Layer 2"
   id="layer2"
   inkscape:groupmode="layer" /></svg>
