<?xml version="1.0" encoding="UTF-8" standalone="no"?>
<svg
   xmlns:dc="http://purl.org/dc/elements/1.1/"
   xmlns:cc="http://creativecommons.org/ns#"
   xmlns:rdf="http://www.w3.org/1999/02/22-rdf-syntax-ns#"
   xmlns:svg="http://www.w3.org/2000/svg"
   xmlns="http://www.w3.org/2000/svg"
   xmlns:sodipodi="http://sodipodi.sourceforge.net/DTD/sodipodi-0.dtd"
   xmlns:inkscape="http://www.inkscape.org/namespaces/inkscape"
   inkscape:version="1.0 (4035a4fb49, 2020-05-01)"
   sodipodi:docname="female_bed_space_red.svg"
   version="1.1"
   fill="#288f38"
   color="green"
   width="512"
   viewBox="0 0 512 512"
   height="512"
   enable-background="new 0 0 512 512"
   id="Capa_1">
  <metadata
     id="metadata11">
    <rdf:RDF>
      <cc:Work
         rdf:about="">
        <dc:format>image/svg+xml</dc:format>
        <dc:type
           rdf:resource="http://purl.org/dc/dcmitype/StillImage" />
        <dc:title></dc:title>
      </cc:Work>
    </rdf:RDF>
  </metadata>
  <defs
     id="defs9" />
  <sodipodi:namedview
     inkscape:current-layer="Capa_1"
     inkscape:window-maximized="1"
     inkscape:window-y="-9"
     inkscape:window-x="-9"
     inkscape:cy="167.24255"
     inkscape:cx="342.85434"
     inkscape:zoom="0.859375"
     showgrid="false"
     id="namedview7"
     inkscape:window-height="1051"
     inkscape:window-width="1920"
     inkscape:pageshadow="2"
     inkscape:pageopacity="0"
     guidetolerance="10"
     gridtolerance="10"
     objecttolerance="10"
     borderopacity="1"
     bordercolor="#666666"
     pagecolor="#ffffff" />
  <g
     inkscape:label="Layer 1"
     id="layer1"
     inkscape:groupmode="layer">
    <ellipse
       transform="scale(1,-1)"
       ry="255.56363"
       rx="255.49091"
       cy="-256.72726"
       cx="256.65454"
       id="path837"
       style="opacity:0.993;fill:#ff2a2a;stroke-width:0.994768" />
  </g>
  <g
     transform="matrix(1.0517939,0,0,1.049505,33.861127,66.327273)"
     id="g4">
    <path
       style="fill:#333333;fill-opacity:1;stroke-width:0.690785"
       id="path2"
       d="M 312.3,100.47205 C 312.3,44.983105 267.03644,0 211.2,0 155.36356,0 110.1,44.983105 110.1,100.47205 c 0,48.69072 34.85351,89.2879 81.11768,98.50598 v 71.07347 h -42.88677 v 39.71642 h 42.88677 v 42.8139 h 39.96464 v -42.8139 h 42.88677 V 270.0515 H 231.18232 V 198.97803 C 277.44718,189.75995 312.3,149.16277 312.3,100.47205 Z m -163.96909,0 c 0,-34.506195 28.14723,-62.478605 62.86909,-62.478605 34.72186,0 62.86909,27.97241 62.86909,62.478605 0,34.50619 -28.14723,62.4786 -62.86909,62.4786 -34.72186,0 -62.86909,-27.97241 -62.86909,-62.4786 z" />
  </g>
</svg>
