<?xml version="1.0" encoding="UTF-8" standalone="no"?>
<svg
   xmlns:dc="http://purl.org/dc/elements/1.1/"
   xmlns:cc="http://creativecommons.org/ns#"
   xmlns:rdf="http://www.w3.org/1999/02/22-rdf-syntax-ns#"
   xmlns:svg="http://www.w3.org/2000/svg"
   xmlns="http://www.w3.org/2000/svg"
   xmlns:sodipodi="http://sodipodi.sourceforge.net/DTD/sodipodi-0.dtd"
   xmlns:inkscape="http://www.inkscape.org/namespaces/inkscape"
   inkscape:version="1.0 (4035a4fb49, 2020-05-01)"
   sodipodi:docname="male_bed_space.svg"
   version="1.1"
   fill="#288f38"
   width="512"
   viewBox="0 0 512 512"
   height="512"
   enable-background="new 0 0 512 512"
   id="Capa_1">
  <metadata
     id="metadata11">
    <rdf:RDF>
      <cc:Work
         rdf:about="">
        <dc:format>image/svg+xml</dc:format>
        <dc:type
           rdf:resource="http://purl.org/dc/dcmitype/StillImage" />
        <dc:title></dc:title>
      </cc:Work>
    </rdf:RDF>
  </metadata>
  <defs
     id="defs9" />
  <sodipodi:namedview
     inkscape:current-layer="layer1"
     inkscape:window-maximized="1"
     inkscape:window-y="-9"
     inkscape:window-x="-9"
     inkscape:cy="504.08014"
     inkscape:cx="77.241445"
     inkscape:zoom="0.60766989"
     showgrid="false"
     id="namedview7"
     inkscape:window-height="1051"
     inkscape:window-width="1920"
     inkscape:pageshadow="2"
     inkscape:pageopacity="0"
     guidetolerance="10"
     gridtolerance="10"
     objecttolerance="10"
     borderopacity="1"
     bordercolor="#666666"
     pagecolor="#ffffff" />
  <g
     inkscape:label="Layer 1"
     id="layer1"
     inkscape:groupmode="layer">
    <ellipse
       ry="255.07271"
       rx="254.24988"
       cy="256.71832"
       cx="255.89552"
       id="path837"
       style="opacity:0.993;fill:#00ff00;fill-opacity:1" />
  </g>
  <g
     style="fill:#333333;fill-opacity:1"
     transform="matrix(0.61109127,0,0,0.62073364,97.09219,103.67471)"
     id="g4">
    <path
       style="fill:#333333;fill-opacity:1"
       id="path2"
       d="M 276.956,0 V 57.674 H 413.545 L 312.156,159.063 C 279.612,134.919 239.319,120.632 195.685,120.632 87.611,120.632 0,208.242 0,316.316 0,424.389 87.611,512 195.684,512 c 108.073,0 195.684,-87.611 195.684,-195.684 0,-43.634 -14.287,-83.928 -38.431,-116.472 L 454.326,98.456 V 235.045 H 512 V 0 Z m -81.272,447.552 c -72.48,0 -131.237,-58.757 -131.237,-131.237 0,-72.48 58.757,-131.237 131.237,-131.237 72.48,0 131.237,58.757 131.237,131.237 0,72.481 -58.757,131.237 -131.237,131.237 z" />
  </g>
</svg>
